<svg width="301" height="248" viewBox="0 0 301 248" fill="none" xmlns="http://www.w3.org/2000/svg">
<path d="M247.057 103.173C245.624 102.347 244.438 100.306 244.438 98.6424V40.3365C244.438 38.6801 243.267 36.643 241.829 35.8166L180.876 0.623938C179.442 -0.206026 177.092 -0.206026 175.652 0.623938L125.157 29.7769C123.727 30.6033 121.374 30.6033 119.937 29.7769L69.4346 0.623938C68.0083 -0.202433 65.6513 -0.202433 64.2141 0.623938L3.26048 35.8166C1.8305 36.643 0.648438 38.6801 0.648438 40.3365V110.722C0.648438 112.382 1.82691 114.422 3.26048 115.249L53.7624 144.402C55.1995 145.228 56.378 147.269 56.378 148.925V207.228C56.378 208.884 57.5493 210.925 58.9901 211.751L119.94 246.947C121.377 247.774 123.731 247.774 125.161 246.947L175.663 217.791C177.096 216.968 179.449 216.968 180.887 217.791L231.381 246.947C232.815 247.774 235.168 247.774 236.605 246.947L297.552 211.751C298.989 210.925 300.164 208.884 300.164 207.228V136.849C300.164 135.19 298.993 133.152 297.552 132.322L247.057 103.173ZM180.887 126.286C179.449 127.116 177.096 127.116 175.663 126.286L146.086 109.209C144.656 108.383 144.656 107.021 146.086 106.195L175.677 89.1032C177.107 88.2768 179.46 88.2768 180.901 89.1032L210.463 106.188C211.897 107.017 211.897 108.376 210.463 109.206L180.887 126.286ZM119.94 121.281C121.377 120.455 123.731 120.455 125.161 121.289L154.741 138.359C156.175 139.192 156.175 140.55 154.741 141.377L125.146 158.464C123.716 159.291 121.359 159.291 119.919 158.464L90.3597 141.384C88.9226 140.554 88.9226 139.196 90.3597 138.362L119.94 121.281ZM64.2177 24.7755C65.6549 23.9492 68.0118 23.9492 69.4382 24.7755L99.0222 41.8491C100.452 42.6791 100.452 44.0408 99.0222 44.8707L69.431 61.9515C67.9975 62.7814 65.6441 62.7814 64.2106 61.9515L34.6409 44.8743C33.2074 44.0444 33.2074 42.6862 34.6409 41.8563L64.2177 24.7755ZM21.5663 64.5025C21.5663 62.8425 22.7448 62.1635 24.1856 62.9934L64.2034 86.1103C65.6405 86.9402 67.9939 86.9402 69.4275 86.1139L175.655 24.7755C177.096 23.9492 179.446 23.9492 180.879 24.7755L220.922 47.8924C222.349 48.7152 223.531 50.7524 223.531 52.4159V86.5594C223.531 88.2157 222.356 88.8984 220.922 88.0648L180.901 64.948C179.46 64.118 177.11 64.118 175.677 64.9444L69.4382 126.286C68.0118 127.116 65.6549 127.116 64.2177 126.286L24.1856 103.173C22.7484 102.347 21.5663 100.309 21.5663 98.646V64.5025ZM79.908 199.682C78.4708 198.856 77.2959 196.819 77.2959 195.152V161.008C77.2959 159.348 78.4672 158.673 79.908 159.506L119.922 182.62C121.363 183.453 123.72 183.453 125.15 182.62L231.381 121.281C232.815 120.455 235.168 120.455 236.605 121.281L276.641 144.395C278.078 145.221 279.253 147.262 279.253 148.922V183.072C279.253 184.729 278.082 185.408 276.641 184.578L236.62 161.461C235.183 160.631 232.833 160.631 231.399 161.457L125.161 222.796C123.731 223.626 121.377 223.626 119.94 222.796L79.908 199.682ZM201.794 205.719C200.353 204.892 200.353 203.534 201.794 202.708L231.389 185.613C232.829 184.786 235.179 184.786 236.616 185.616L266.182 202.697C267.623 203.523 267.623 204.885 266.182 205.715L236.602 222.796C235.165 223.626 232.811 223.626 231.378 222.796L201.794 205.719Z" fill="#EEEEEE"/>
</svg>
