<svg width="700" height="700" viewBox="0 0 700 700" fill="none" xmlns="http://www.w3.org/2000/svg">
<path d="M367.321 71.6411L582.679 195.981C587.945 199.021 592.318 203.394 595.359 208.66C598.399 213.926 600 219.899 600 225.98V474.659C600 480.74 598.399 486.713 595.359 491.979C592.318 497.245 587.945 501.618 582.679 504.659L367.321 628.998C362.054 632.038 356.081 633.639 350 633.639C343.919 633.639 337.946 632.038 332.679 628.998L117.321 504.659C112.055 501.618 107.682 497.245 104.641 491.979C101.601 486.713 100 480.74 100 474.659V225.98C100 219.899 101.601 213.926 104.641 208.66C107.682 203.394 112.055 199.021 117.321 195.981L332.679 71.6411C337.946 68.6006 343.919 67 350 67C356.081 67 362.054 68.6006 367.321 71.6411Z" fill="#2C8430"/>
<path d="M350 495.833C350 495.833 466.667 437.5 466.667 350V247.917L350 204.167L233.333 247.917V350C233.333 437.5 350 495.833 350 495.833Z" stroke="#F3F3F3" stroke-width="25" stroke-linecap="round" stroke-linejoin="round"/>
<path d="M400 312.5L331.25 381.25L300 350" stroke="#F3F3F3" stroke-width="25" stroke-linecap="round" stroke-linejoin="round"/>
</svg>
